<svg xmlns="http://www.w3.org/2000/svg" viewBox="0 0 100 100">
  <rect width="100" height="100" rx="14" fill="#f8f8f8"/>
  <rect x="28" y="55" width="44" height="35" rx="4" fill="#1a1a1a"/>
  <rect x="30" y="18" width="40" height="38" rx="6" fill="#e0c49a"/>
  <rect x="28" y="14" width="44" height="14" rx="5" fill="#1a1a1a"/>
  <rect x="38" y="28" width="8" height="8" rx="2" fill="#1a1a1a"/>
  <rect x="54" y="28" width="8" height="8" rx="2" fill="#1a1a1a"/>
  <rect x="40" y="30" width="3" height="3" rx="1" fill="#fff"/>
  <rect x="56" y="30" width="3" height="3" rx="1" fill="#fff"/>
  <path d="M42 42 Q50 48 58 42" stroke="#1a1a1a" stroke-width="2" fill="none" stroke-linecap="round"/>
  <rect x="42" y="55" width="16" height="6" rx="2" fill="#2a2a2a"/>
  <rect x="70" y="60" width="6" height="6" fill="#333" opacity=".5"/>
  <rect x="24" y="60" width="6" height="6" fill="#333" opacity=".5"/>
  <path d="M30 30q4-4 8-1l1 1M70 30q-4-4-8-1l-1 1" stroke="#111" stroke-width="2" fill="none" stroke-linecap="round"/>
  <rect x="35" y="27" width="12" height="10" rx="3" fill="#111"/>
  <rect x="53" y="27" width="12" height="10" rx="3" fill="#111"/>
  <path d="M47 31h6" stroke="#111" stroke-width="2" stroke-linecap="round"/>
  <rect x="36" y="29" width="4" height="3" rx="1" fill="#fff" opacity=".35"/>
  <rect x="54" y="29" width="4" height="3" rx="1" fill="#fff" opacity=".35"/>
</svg>
